<svg width="142" height="34" viewBox="0 0 142 34" fill="none" xmlns="http://www.w3.org/2000/svg">
<g clip-path="url(#clip0_1092_23022)">
<path d="M16.8464 1.93164C8.65935 1.93164 2.021 8.56831 2.021 16.7553C2.021 24.9423 8.65766 31.579 16.8447 31.579C25.0317 31.579 31.6684 24.9423 31.6684 16.7553C31.6684 8.56831 25.0334 1.93164 16.8464 1.93164Z" fill="#151516"/>
<path d="M19.3499 20.0315H18.3022V21.3254H19.3499C19.4427 21.3254 19.5186 21.2917 19.5776 21.2259C19.635 21.1567 19.6637 21.0673 19.6637 20.961V20.4043C19.6637 20.2964 19.6367 20.2086 19.5776 20.1378C19.5203 20.0669 19.4427 20.0332 19.3499 20.0332V20.0315Z" fill="white"/>
<path d="M15.4074 20.0315H14.6398C14.5403 20.0315 14.4627 20.0652 14.4037 20.1361C14.3463 20.2069 14.3176 20.2947 14.3176 20.4026V22.7223C14.3176 22.8269 14.3446 22.9146 14.4037 22.9854C14.4644 23.058 14.5403 23.0968 14.6398 23.0968H15.4074C15.5002 23.0968 15.5778 23.0597 15.6369 22.9854C15.6993 22.9146 15.7296 22.8269 15.7296 22.7223V20.4026C15.7296 20.2947 15.6993 20.2069 15.6369 20.1361C15.5778 20.0652 15.5002 20.0315 15.4074 20.0315Z" fill="white"/>
<path d="M11.5729 20.0315H10.4814V21.4351H11.5729C11.6657 21.4351 11.745 21.3997 11.8041 21.3305C11.8648 21.2596 11.8952 21.1719 11.8952 21.0639V20.4043C11.8952 20.2947 11.8648 20.2086 11.8041 20.1378C11.745 20.0669 11.6657 20.0332 11.5729 20.0332V20.0315Z" fill="white"/>
<path d="M16.7519 0C7.50041 0 0 7.50041 0 16.7519C0 26.0034 7.50041 33.5039 16.7519 33.5039C26.0034 33.5039 33.5039 26.0034 33.5039 16.7519C33.5039 7.50041 26.0051 0 16.7519 0ZM10.4915 7.75346H19.1036L17.7844 9.84197L9.1756 9.84703L10.4932 7.75346H10.4915ZM8.74542 22.8606C8.74542 23.1288 8.65263 23.3565 8.46875 23.5421C8.28149 23.7311 8.05206 23.8255 7.78889 23.8255H6.65353C6.38361 23.8255 6.15756 23.7344 5.97705 23.5556C5.79485 23.3751 5.70713 23.1524 5.70713 22.8791V22.4304H6.40555L6.50845 22.8471C6.55569 23.0191 6.67378 23.1069 6.8661 23.1069H7.63368C7.72984 23.1069 7.80744 23.0731 7.86818 23.0006C7.92553 22.9314 7.95421 22.8403 7.95421 22.7357V22.2414C7.95421 21.9985 7.84793 21.8754 7.63368 21.8754H6.66872C6.40555 21.8754 6.17611 21.7826 5.98548 21.5953C5.79991 21.4064 5.70713 21.1803 5.70713 20.9138V20.2609C5.70713 19.9994 5.79991 19.7733 5.98548 19.5878C6.17611 19.3988 6.40555 19.306 6.66872 19.306H7.78889C8.05206 19.306 8.27643 19.3971 8.462 19.576C8.6442 19.7565 8.73361 19.9792 8.73361 20.2508V20.6573H8.04025L7.93566 20.2896C7.88167 20.1141 7.76021 20.0281 7.58139 20.0281H6.82392C6.72439 20.0281 6.64679 20.0635 6.58943 20.1344C6.52701 20.2052 6.50002 20.2946 6.50002 20.4026V20.7839C6.50002 21.0217 6.6063 21.1398 6.82392 21.1398H7.78889C8.05037 21.1398 8.27474 21.2343 8.46369 21.4266C8.65263 21.6172 8.74542 21.8416 8.74542 22.1031V22.869V22.8606ZM12.6947 21.2039C12.6947 21.4705 12.6002 21.6965 12.4146 21.8821C12.224 22.0694 11.9946 22.1638 11.7297 22.1638H10.483V23.8238H9.68339V19.2993H11.7297C11.9946 19.2993 12.224 19.3921 12.4146 19.581C12.6002 19.7666 12.6947 19.9927 12.6947 20.2525V21.2039ZM16.5276 22.8538C16.5276 23.1288 16.4365 23.3565 16.2441 23.5421C16.0552 23.7311 15.8325 23.8255 15.5626 23.8255H14.4812C14.2113 23.8255 13.9836 23.7311 13.7963 23.5421C13.609 23.3565 13.5129 23.1288 13.5129 22.8538V20.2525C13.5129 19.9927 13.609 19.7666 13.7963 19.581C13.9836 19.3921 14.213 19.2993 14.4812 19.2993H15.5626C15.8325 19.2993 16.0552 19.3921 16.2441 19.5777C16.4365 19.7599 16.5276 19.9893 16.5276 20.2525V22.8538ZM16.7266 18.223H5.82184L8.47381 14.0342H6.52701L7.85131 11.9389H15.9624L14.6364 14.0342H10.9993L9.6564 16.1311H15.5103L20.8631 7.68092L27.5251 18.223H25.0115L23.6872 16.1294H19.748L21.0723 14.0308H22.3629L20.8615 11.6504L16.7249 18.2213L16.7266 18.223ZM19.7987 23.8255L19.0614 22.0542H18.3023V23.8255H17.5026V19.301H19.5034C19.7717 19.301 19.9994 19.3938 20.185 19.5827C20.3722 19.7683 20.4667 19.9943 20.4667 20.2541V21.0437C20.4667 21.2478 20.4093 21.4367 20.298 21.6004C20.1799 21.764 20.0315 21.8804 19.8577 21.9563L20.6506 23.8255H19.8003H19.7987ZM24.0819 20.0315H22.9213V23.8255H22.12V20.0315H20.9694V19.301H24.0819V20.0315ZM27.709 22.8606C27.709 23.1288 27.6162 23.3565 27.429 23.5421C27.24 23.7311 27.0123 23.8255 26.744 23.8255H25.6121C25.3421 23.8255 25.1195 23.7344 24.9356 23.5556C24.7551 23.3751 24.664 23.1524 24.664 22.8791V22.4304H25.3607L25.4653 22.8471C25.5142 23.0191 25.6306 23.1069 25.8246 23.1069H26.5922C26.6884 23.1069 26.7693 23.0731 26.8284 23.0006C26.8857 22.9314 26.9144 22.8403 26.9144 22.7357V22.2414C26.9144 21.9985 26.8081 21.8754 26.5922 21.8754H25.6289C25.3624 21.8754 25.133 21.7826 24.9491 21.5953C24.7635 21.4064 24.6657 21.1803 24.6657 20.9138V20.2609C24.6657 19.9994 24.7618 19.7733 24.9491 19.5878C25.133 19.3988 25.3624 19.306 25.6289 19.306H26.7457C27.014 19.306 27.2366 19.3971 27.4205 19.576C27.6027 19.7565 27.6938 19.9792 27.6938 20.2508V20.6573H26.9988L26.8942 20.2896C26.8385 20.1141 26.7187 20.0281 26.5416 20.0281H25.7824C25.6863 20.0281 25.6036 20.0635 25.548 20.1344C25.4906 20.2052 25.4602 20.2946 25.4602 20.4026V20.7839C25.4602 21.0217 25.5699 21.1398 25.7824 21.1398H26.7457C27.0089 21.1398 27.235 21.2343 27.4205 21.4266C27.6145 21.6172 27.709 21.8416 27.709 22.1031V22.869V22.8606ZM28.1982 19.5237H28.0278V19.8864H27.9418V19.5237H27.7714V19.4494H28.1982V19.5237ZM28.706 19.8864V19.6165C28.706 19.6046 28.706 19.5912 28.7077 19.5692C28.6993 19.5861 28.6976 19.6013 28.6858 19.6165L28.5474 19.8307H28.5339L28.3906 19.6114C28.3838 19.5996 28.3737 19.5827 28.3636 19.5675C28.3636 19.5844 28.372 19.5996 28.372 19.6148V19.8847H28.2978V19.4461H28.372L28.5441 19.7109L28.7161 19.4461H28.7819V19.8847H28.7026L28.706 19.8864Z" fill="white"/>
<path d="M63.2154 30.1383H78.9434L85.2325 19.269H77.9801L75.3214 23.8627L69.9972 23.8678L78.218 9.64127H83.5404L80.6371 14.6618L87.8946 14.6685L94.4351 3.36731H78.4356C76.062 3.36562 73.8689 4.63088 72.6812 6.68396L61.1641 26.5838C60.2497 28.1629 61.3901 30.14 63.2138 30.14" fill="white"/>
<path d="M117.886 6.89815C118.794 5.33092 117.663 3.36894 115.852 3.36725C111.806 3.36388 106.976 3.36051 104.058 3.36894C101.588 3.37738 99.324 4.68818 98.0824 6.8138C97.4632 7.87492 96.1693 10.1051 94.6105 12.7993H102.081L103.94 9.5788H109.093L106.141 14.6887H98.0402C95.314 14.6837 92.7902 16.1277 91.4119 18.4811C88.9742 22.6396 85.3168 28.8882 84.5981 30.1383H104.429L108.024 23.92H95.6514L97.3569 20.9745H109.726C110.541 19.5642 115.103 11.701 117.884 6.89815" fill="white"/>
<path d="M53.3025 14.2417L55.9629 9.63952H68.5412L72.1851 3.36218H56.2497C53.8356 3.36218 51.6037 4.64937 50.3941 6.73956L36.8508 30.1366H44.1083L49.6822 20.5156H62.2588L65.8791 14.24H53.3008L53.3025 14.2417Z" fill="white"/>
<path d="M142 3.36893L135.389 14.7292L138.834 14.7562L135.281 20.9745L131.829 20.9576L126.586 30.1366H119.354L124.605 20.9593L118.643 20.9677C115.715 20.9711 113.876 17.808 115.33 15.264L122.129 3.36724L129.307 3.36218L122.854 14.6938L128.145 14.7562L134.653 3.36893H142.002H142Z" fill="white"/>
</g>
<defs>
<clipPath id="clip0_1092_23022">
<rect width="142" height="33.5039" fill="white"/>
</clipPath>
</defs>
</svg>
