<?xml version="1.0" encoding="UTF-8"?>
<!DOCTYPE svg PUBLIC "-//W3C//DTD SVG 1.1//EN" "http://www.w3.org/Graphics/SVG/1.1/DTD/svg11.dtd">
<svg xmlns="http://www.w3.org/2000/svg" version="1.1" width="160px" height="160px" style="shape-rendering:geometricPrecision; text-rendering:geometricPrecision; image-rendering:optimizeQuality; fill-rule:evenodd; clip-rule:evenodd" xmlns:xlink="http://www.w3.org/1999/xlink">
<g><path style="opacity:0.964" fill="#616872" d="M 111.5,36.5 C 107.14,38.662 102.64,40.662 98,42.5C 97.1667,42.3333 96.3333,42.1667 95.5,42C 97.1161,41.3848 98.4495,40.3848 99.5,39C 99,38.8333 98.5,38.6667 98,38.5C 96.5044,40.3357 94.6711,41.169 92.5,41C 94.0074,40.1627 94.5074,38.9961 94,37.5C 91.2656,40.2926 90.2656,39.9593 91,36.5C 88.6474,39.6024 85.9807,41.6024 83,42.5C 82.5,42 82,41.5 81.5,41C 83.4396,36.4014 82.6063,35.9014 79,39.5C 78.6667,38.8333 78.3333,38.1667 78,37.5C 76.9148,38.2931 75.7481,38.9598 74.5,39.5C 73.0622,36.1771 71.2289,35.8438 69,38.5C 69.0065,35.1372 70.1732,32.1372 72.5,29.5C 72.1543,28.3044 71.6543,28.3044 71,29.5C 70.6667,28.5 70.3333,27.5 70,26.5C 68.5117,30.7869 67.1783,35.1203 66,39.5C 65.6667,38.1667 65.3333,36.8333 65,35.5C 63.9266,39.0836 63.2599,42.7502 63,46.5C 62.3333,44.5 61.6667,42.5 61,40.5C 60.6667,41.1667 60.3333,41.8333 60,42.5C 59,41.1667 58,39.8333 57,38.5C 56.2276,39.8491 55.0609,40.6824 53.5,41C 54.1667,41.3333 54.8333,41.6667 55.5,42C 53.8333,43.6667 52.1667,45.3333 50.5,47C 51.9961,47.5074 53.1627,47.0074 54,45.5C 54.8952,48.4663 54.3952,51.1329 52.5,53.5C 52.6236,54.1067 52.9569,54.44 53.5,54.5C 51.4659,58.0064 51.1326,61.6731 52.5,65.5C 51.2827,68.7617 49.9494,71.9284 48.5,75C 48.6448,76.2259 48.9781,77.3926 49.5,78.5C 48.7174,83.4473 48.2174,88.4473 48,93.5C 47.0042,90.0911 46.1708,86.7577 45.5,83.5C 45.5674,82.0413 45.2341,80.7079 44.5,79.5C 45.8333,78.5 45.8333,77.5 44.5,76.5C 44.2744,66.13 44.7744,55.7966 46,45.5C 47.8364,43.2568 48.3364,40.9235 47.5,38.5C 50.8508,35.6986 52.3508,32.0319 52,27.5C 53.9555,25.0888 55.7888,22.5888 57.5,20C 69.6547,16.3433 81.988,15.6766 94.5,18C 100.041,19.685 104.874,22.5183 109,26.5C 110.064,29.799 110.898,33.1323 111.5,36.5 Z"/></g>
<g><path style="opacity:1" fill="#3d414d" d="M 111.5,36.5 C 112.167,36.5 112.5,36.8333 112.5,37.5C 112.414,38.4959 112.748,39.3292 113.5,40C 111.096,40.5079 110.429,41.6745 111.5,43.5C 109.503,43.4766 108.169,44.8099 107.5,47.5C 108.932,49.297 108.599,50.6303 106.5,51.5C 102.008,49.4464 97.3415,47.7797 92.5,46.5C 83.1835,47.9264 73.8502,48.7597 64.5,49C 60.2316,49.8011 56.565,51.6344 53.5,54.5C 52.9569,54.44 52.6236,54.1067 52.5,53.5C 54.3952,51.1329 54.8952,48.4663 54,45.5C 53.1627,47.0074 51.9961,47.5074 50.5,47C 52.1667,45.3333 53.8333,43.6667 55.5,42C 54.8333,41.6667 54.1667,41.3333 53.5,41C 55.0609,40.6824 56.2276,39.8491 57,38.5C 58,39.8333 59,41.1667 60,42.5C 60.3333,41.8333 60.6667,41.1667 61,40.5C 61.6667,42.5 62.3333,44.5 63,46.5C 63.2599,42.7502 63.9266,39.0836 65,35.5C 65.3333,36.8333 65.6667,38.1667 66,39.5C 67.1783,35.1203 68.5117,30.7869 70,26.5C 70.3333,27.5 70.6667,28.5 71,29.5C 71.6543,28.3044 72.1543,28.3044 72.5,29.5C 70.1732,32.1372 69.0065,35.1372 69,38.5C 71.2289,35.8438 73.0622,36.1771 74.5,39.5C 75.7481,38.9598 76.9148,38.2931 78,37.5C 78.3333,38.1667 78.6667,38.8333 79,39.5C 82.6063,35.9014 83.4396,36.4014 81.5,41C 82,41.5 82.5,42 83,42.5C 85.9807,41.6024 88.6474,39.6024 91,36.5C 90.2656,39.9593 91.2656,40.2926 94,37.5C 94.5074,38.9961 94.0074,40.1627 92.5,41C 94.6711,41.169 96.5044,40.3357 98,38.5C 98.5,38.6667 99,38.8333 99.5,39C 98.4495,40.3848 97.1161,41.3848 95.5,42C 96.3333,42.1667 97.1667,42.3333 98,42.5C 102.64,40.662 107.14,38.662 111.5,36.5 Z"/></g>
<g><path style="opacity:0.91" fill="#626872" d="M 112.5,37.5 C 113.117,37.6107 113.617,37.944 114,38.5C 114.988,41.4245 115.654,44.4245 116,47.5C 116.426,57.1737 116.259,66.8403 115.5,76.5C 114.766,77.7079 114.433,79.0413 114.5,80.5C 114.5,81.5 114.5,82.5 114.5,83.5C 113.883,83.6107 113.383,83.944 113,84.5C 113.038,77.5903 111.871,70.9237 109.5,64.5C 111.581,59.252 110.581,54.9186 106.5,51.5C 108.599,50.6303 108.932,49.297 107.5,47.5C 108.169,44.8099 109.503,43.4766 111.5,43.5C 110.429,41.6745 111.096,40.5079 113.5,40C 112.748,39.3292 112.414,38.4959 112.5,37.5 Z"/></g>
<g><path style="opacity:0.994" fill="#989ea9" d="M 106.5,51.5 C 110.581,54.9186 111.581,59.252 109.5,64.5C 111.871,70.9237 113.038,77.5903 113,84.5C 113.383,83.944 113.883,83.6107 114.5,83.5C 115.451,84.9187 115.784,86.5853 115.5,88.5C 115.672,89.4916 115.338,90.1583 114.5,90.5C 113.021,85.3058 112.354,85.6392 112.5,91.5C 111.402,92.6009 111.235,93.9343 112,95.5C 113.016,94.3659 113.683,94.6992 114,96.5C 115.341,93.978 116.174,91.3113 116.5,88.5C 116.873,85.4261 117.539,82.4261 118.5,79.5C 117.041,79.4326 115.708,79.7659 114.5,80.5C 114.433,79.0413 114.766,77.7079 115.5,76.5C 116.822,76.33 117.989,76.6634 119,77.5C 119.168,82.1725 118.834,86.8391 118,91.5C 114.297,99.8529 110.631,108.186 107,116.5C 106.531,122.182 106.698,127.848 107.5,133.5C 107.66,138.566 107.16,143.566 106,148.5C 104.14,152.22 102.307,155.886 100.5,159.5C 85.8333,159.5 71.1667,159.5 56.5,159.5C 51.1393,151.718 48.806,143.051 49.5,133.5C 50.4982,126.843 51.4982,120.177 52.5,113.5C 52.163,110.824 51.8297,108.157 51.5,105.5C 48.405,105.374 46.5717,103.707 46,100.5C 43.2429,94.8048 41.7429,88.8048 41.5,82.5C 43.085,85.9003 44.2517,89.567 45,93.5C 45.4983,90.1832 45.665,86.8499 45.5,83.5C 46.1708,86.7577 47.0042,90.0911 48,93.5C 48.2174,88.4473 48.7174,83.4473 49.5,78.5C 48.9781,77.3926 48.6448,76.2259 48.5,75C 49.9494,71.9284 51.2827,68.7617 52.5,65.5C 51.1326,61.6731 51.4659,58.0064 53.5,54.5C 56.565,51.6344 60.2316,49.8011 64.5,49C 73.8502,48.7597 83.1835,47.9264 92.5,46.5C 97.3415,47.7797 102.008,49.4464 106.5,51.5 Z"/></g>
<g><path style="opacity:0.838" fill="#979aa8" d="M 44.5,76.5 C 45.8333,77.5 45.8333,78.5 44.5,79.5C 43.5,79.5 42.5,79.5 41.5,79.5C 41.5,80.5 41.5,81.5 41.5,82.5C 40.2121,80.9652 40.2121,79.2985 41.5,77.5C 42.4168,76.8728 43.4168,76.5394 44.5,76.5 Z"/></g>
<g><path style="opacity:1" fill="#4a505b" d="M 44.5,79.5 C 45.2341,80.7079 45.5674,82.0413 45.5,83.5C 45.665,86.8499 45.4983,90.1832 45,93.5C 44.2517,89.567 43.085,85.9003 41.5,82.5C 41.5,81.5 41.5,80.5 41.5,79.5C 42.5,79.5 43.5,79.5 44.5,79.5 Z"/></g>
<g><path style="opacity:1" fill="#3f434f" d="M 116.5,88.5 C 116.167,88.5 115.833,88.5 115.5,88.5C 115.784,86.5853 115.451,84.9187 114.5,83.5C 114.5,82.5 114.5,81.5 114.5,80.5C 115.708,79.7659 117.041,79.4326 118.5,79.5C 117.539,82.4261 116.873,85.4261 116.5,88.5 Z"/></g>
<g><path style="opacity:1" fill="#434753" d="M 114.5,90.5 C 113.729,93.3322 113.062,93.6655 112.5,91.5C 112.354,85.6392 113.021,85.3058 114.5,90.5 Z"/></g>
<g><path style="opacity:1" fill="#6f727d" d="M 115.5,88.5 C 115.833,88.5 116.167,88.5 116.5,88.5C 116.174,91.3113 115.341,93.978 114,96.5C 113.683,94.6992 113.016,94.3659 112,95.5C 111.235,93.9343 111.402,92.6009 112.5,91.5C 113.062,93.6655 113.729,93.3322 114.5,90.5C 115.338,90.1583 115.672,89.4916 115.5,88.5 Z"/></g>
<g><path style="opacity:1" fill="#3b3f4a" d="M 54.5,116.5 C 58.7818,122.867 63.4485,129.034 68.5,135C 79.7237,141.577 89.5571,139.744 98,129.5C 99.3333,127.5 100.667,125.5 102,123.5C 99.0229,133.183 93.5229,141.35 85.5,148C 75.2834,153.82 67.1168,151.653 61,141.5C 57.4246,133.532 55.2579,125.198 54.5,116.5 Z"/></g>
<g><path style="opacity:0.982" fill="#2c313c" d="M 49.5,133.5 C 48.806,143.051 51.1393,151.718 56.5,159.5C 53.5,159.5 50.5,159.5 47.5,159.5C 43.9542,152.293 42.6209,144.627 43.5,136.5C 45.1815,134.992 47.1815,133.992 49.5,133.5 Z"/></g>
<g><path style="opacity:0.981" fill="#2c313c" d="M 107.5,133.5 C 109.819,133.992 111.819,134.992 113.5,136.5C 114.193,144.62 112.86,152.287 109.5,159.5C 106.5,159.5 103.5,159.5 100.5,159.5C 102.307,155.886 104.14,152.22 106,148.5C 107.16,143.566 107.66,138.566 107.5,133.5 Z"/></g>
<g><path style="opacity:0.969" fill="#393c47" d="M 43.5,136.5 C 42.6209,144.627 43.9542,152.293 47.5,159.5C 31.5,159.5 15.5,159.5 -0.5,159.5C -0.5,158.167 -0.5,156.833 -0.5,155.5C 14.1667,149.167 28.8333,142.833 43.5,136.5 Z"/></g>
<g><path style="opacity:0.963" fill="#383c47" d="M 113.5,136.5 C 128.829,143.164 144.162,149.831 159.5,156.5C 159.5,157.5 159.5,158.5 159.5,159.5C 142.833,159.5 126.167,159.5 109.5,159.5C 112.86,152.287 114.193,144.62 113.5,136.5 Z"/></g>
</svg>
